<svg id="Out_line" data-name="Out line" xmlns="http://www.w3.org/2000/svg" width="2586.783" height="2586.777" viewBox="0 0 2586.783 2586.777">
  <path id="Path_5" data-name="Path 5" d="M359.68,225.482,274.085,215.03a252.383,252.383,0,0,1-71.743,147.19L263.318,423.2A339.049,339.049,0,0,0,359.68,225.482Z" transform="translate(801.888 857.569)"/>
  <path id="Path_6" data-name="Path 6" d="M2559.668,1611.18H2398.405a225.618,225.618,0,0,0,31.161-54.454l10.657-26.651a223.49,223.49,0,0,0-80.5-267.064l-54.846-164.534,32.776-57.359a1504.454,1504.454,0,0,0,178.319-500.672,43.108,43.108,0,0,0-9.409-34.687L2394.416,371.184a386.974,386.974,0,0,0-298.08-139.617H1973.944l-12.3-12.3a250.734,250.734,0,0,0-178.467-73.921H1703.7a253.642,253.642,0,0,0-112.861,26.64l-12.594,6.294c-4.56,2.28-9.01,4.709-13.383,7.228a369.583,369.583,0,0,0-267.351,25.359l-40.451,20.225L945.292,23.244a43.1,43.1,0,0,0-50.849,2.205l-431.129,344.9a43.117,43.117,0,0,0-7.557,59.533L502.269,491.9a173.084,173.084,0,0,0,119.15,67.953,170.164,170.164,0,0,0,18.635,1.021,173.405,173.405,0,0,0,91.994-26.53L756.6,558.9l83.1,166.194a43.083,43.083,0,0,0,57.843,19.278l48.776-24.385a881.6,881.6,0,0,0-24.946,208.383V946.63l-12.631,12.625a251.915,251.915,0,0,0-57.4,266.819,837.383,837.383,0,0,0-151.8,26.952A259.148,259.148,0,0,0,468.2,1051.642a256.261,256.261,0,0,0-193.52-87.156c-138.8,0-252.834,109.495-258.468,248.138-5.654,138.6,99.1,257,237.4,268.285,93.354,105.568,254.112,116.783,361.219,25.2l8.231,4.115c5.852,2.926,11.773,5.715,17.686,8.521a311.854,311.854,0,0,0-9.176,116.508l70.34,633.05-141.046,35.263a263.588,263.588,0,0,0-199.96,256.1,43.115,43.115,0,0,0,43.111,43.113H1007.6a43.115,43.115,0,0,0,42.529-50.2l-40.985-245.912,49.732-111.9a653.441,653.441,0,0,0,14.578-497.356h106.6v862.258a43.115,43.115,0,0,0,43.111,43.113h43.115V1912.97h172.452v344.9h86.226v-344.9H1658.4l35.521,355.229-141.451,35.366a263.588,263.588,0,0,0-199.96,256.1,43.115,43.115,0,0,0,43.111,43.113H1999.2a43.115,43.115,0,0,0,42.528-50.2l-40.984-245.91,49.731-111.892a655.319,655.319,0,0,0,56.579-281.8h150.824v646.694a43.115,43.115,0,0,0,43.111,43.113h258.68a43.114,43.114,0,0,0,43.113-43.111V1654.293a43.115,43.115,0,0,0-43.111-43.113Zm-199.095-214.172a137.675,137.675,0,0,1-.408,101.048l-10.657,26.646a136.76,136.76,0,0,1-113.358,85.65,235.055,235.055,0,0,0,26.316-41.284l4.963-9.925a232.835,232.835,0,0,0,24.177-93.167ZM630.824,474.14a85.4,85.4,0,0,1-59.575-33.977l-21.435-28.582,373.88-299.106,300.348,200.234a272.9,272.9,0,0,1-177.82,1.253L935.014,276.89a43.129,43.129,0,0,0-41.692,8.168L696.346,453.894a85.425,85.425,0,0,1-65.522,20.246Zm272.9,835.454L934,1339.877a43.116,43.116,0,1,0,60.975-60.975l-25.256-25.256a165.045,165.045,0,0,1,0-233.416l25.256-25.256a43.126,43.126,0,0,0,12.625-30.487V928.368a795.535,795.535,0,0,1,24.923-197.623l47.667,15.967a43.131,43.131,0,0,0,44.123-10.415l129.339-129.339-60.975-60.975-110.5,110.5L978.127,621.793a43.116,43.116,0,0,0-32.919,2.342l-47.66,23.83L830.6,514.074a43.281,43.281,0,0,0-8.073-11.2l-23.459-23.459,131.836-113,88.052,29.356a358.635,358.635,0,0,0,314.353-42.1,43,43,0,0,0,5.729-67.07,284.075,284.075,0,0,1,145.651-28.152,251.62,251.62,0,0,0-45.955,145.577h86.226A165.26,165.26,0,0,1,1616.8,255.4l12.594-6.295a166.994,166.994,0,0,1,74.306-17.541h79.479a165.058,165.058,0,0,1,117.492,48.67l24.93,24.93a43.125,43.125,0,0,0,30.488,12.625h140.248A301.01,301.01,0,0,1,2328.179,426.38l99.372,119.255a1418.122,1418.122,0,0,1-164.768,452.706l-42.339,74.095a43.117,43.117,0,0,0-3.468,35.024l77.8,233.395-68.2,68.206L2167.1,1290.106a43.132,43.132,0,0,0-19.277-19.278l-86.226-43.113a43.139,43.139,0,0,0-32.919-2.342l-95,31.672L2118.545,1035.2a43.092,43.092,0,0,0,9.563-33.7l-17.247-120.713a324.24,324.24,0,0,1,91.278-273.829l-60.975-60.975a405.78,405.78,0,0,0-62.2,80.294A298.693,298.693,0,0,1,1863,555.3a198.308,198.308,0,0,0,88.536-88.882l-77.121-38.566a112.26,112.26,0,0,1-100.956,62.4H1654.3V576.47h43.113V670.1a42.809,42.809,0,0,1-12.631,30.482L1549.041,836.316a43.061,43.061,0,0,1-57.417,3.179l-155.3-124.239-53.86,67.332,155.3,124.239a129.208,129.208,0,0,0,172.252-9.536l135.738-135.738a128.5,128.5,0,0,0,37.882-91.457v-71.1a384.924,384.924,0,0,0,256.751,113.853A408.874,408.874,0,0,0,2025.5,892.98l14.536,101.741-190.363,228.443h-134.4L1857.236,1081.2l-60.975-60.975-153.813,153.813-54.607-39.006L1727.9,994.974,1666.923,934,1516.7,1084.219l-54.609-39.006,7.126-7.126a43.116,43.116,0,0,0-60.975-60.975l-42.281,42.281a43.048,43.048,0,0,1-49.76,8.078L1113.112,925.926l-38.566,77.121,144.625,72.312A969.14,969.14,0,0,1,1029.908,1524.7a875.159,875.159,0,0,1-358.4-86.831,256.728,256.728,0,0,0,32.231-96.286,751.944,751.944,0,0,1,199.988-31.99Zm788.71,6.431-28.435,37.9a231.545,231.545,0,0,0-45.271,162.389l9.486,94.862h-75.24l-134.128-301.79h278.858c-1.774,2.195-3.571,4.368-5.271,6.636ZM1300.4,1113.395a129.087,129.087,0,0,0,95.023-9.844l167.457,119.613h-210.37c-.211,0-.416.037-.629.04-1.36.018-2.729.108-4.1.258-.366.041-.734.072-1.1.121-.245.034-.487.045-.732.082l-73.849,11.362a1053.77,1053.77,0,0,0,28.3-121.631ZM102.233,1223.164A172.731,172.731,0,0,1,351.99,1068.837c-1.176.467-2.328.98-3.495,1.463-1.108.459-2.216.916-3.314,1.388q-4.4,1.9-8.718,3.948c-.555.263-1.121.508-1.674.775q-5.092,2.465-10.049,5.154c-.917.495-1.816,1.013-2.726,1.518q-3.659,2.033-7.248,4.173-1.567.935-3.121,1.892-3.7,2.289-7.324,4.7c-.743.495-1.5.971-2.235,1.472q-4.638,3.152-9.128,6.5c-.7.521-1.379,1.066-2.074,1.592q-3.473,2.644-6.859,5.395-1.413,1.15-2.806,2.323-3.163,2.652-6.238,5.4c-.788.7-1.585,1.395-2.364,2.109q-4.117,3.769-8.078,7.7c-.43.43-.842.878-1.27,1.31q-3.318,3.355-6.51,6.827c-.814.885-1.614,1.784-2.417,2.681q-2.686,3-5.277,6.09c-.742.883-1.491,1.76-2.222,2.654-2.314,2.831-4.587,5.7-6.781,8.626-.063.084-.129.164-.191.249-2.225,2.975-4.367,6.013-6.464,9.084-.655.958-1.287,1.929-1.929,2.9q-2.228,3.359-4.356,6.789c-.642,1.036-1.284,2.068-1.912,3.113q-2.416,4.026-4.687,8.142c-.313.568-.646,1.122-.955,1.692q-2.676,4.938-5.131,10.006c-.468.962-.909,1.938-1.366,2.906q-1.776,3.762-3.437,7.586-.742,1.715-1.462,3.438-1.674,4.028-3.209,8.123c-.328.871-.676,1.731-.995,2.606q-1.94,5.336-3.652,10.776c-.274.872-.518,1.758-.783,2.634q-1.285,4.241-2.43,8.539c-.322,1.214-.631,2.433-.937,3.654q-1.032,4.133-1.924,8.318c-.228,1.062-.472,2.114-.687,3.18-.764,3.794-1.458,7.613-2.052,11.464-.095.609-.162,1.226-.251,1.837q-.724,4.914-1.26,9.885c-.133,1.238-.246,2.481-.362,3.723q-.4,4.277-.655,8.593c-.072,1.2-.155,2.4-.21,3.613-.184,3.984-.305,7.985-.305,12.013,0,5.218.205,10.4.509,15.57.059,1,.109,2,.18,3q.525,7.46,1.466,14.836c.121.945.266,1.881.4,2.823.67,4.8,1.445,9.578,2.38,14.315.068.347.12.7.191,1.045.989,4.9,2.163,9.76,3.435,14.588.154.582.257,1.179.414,1.76A172.651,172.651,0,0,1,102.233,1223.164Zm344.9,258.677a171.142,171.142,0,1,1,122.33-50.121A172.452,172.452,0,0,1,447.136,1481.841ZM452.4,2516.551a177.5,177.5,0,0,1,129.386-129.339L754.226,2344.1H927.967l28.746,172.452Zm598.318-905.371H1007.6a43.11,43.11,0,0,0-38.561,62.4,567.817,567.817,0,0,1,11.041,486.167l-43.613,98.13H787.513l-70.237-632.147a225.228,225.228,0,0,1,3.945-73.234,961.444,961.444,0,0,0,329.5,58.688A43.116,43.116,0,0,0,1084.384,1595a1054.97,1054.97,0,0,0,155.839-267.829l86.271-13.273,132.123,297.28Zm344.9,215.564H1266.281V1697.406h370.559l12.933,129.339ZM1444,2516.551a177.494,177.494,0,0,1,129.386-129.339l172.441-43.113h173.741l28.746,172.452Zm527.686-356.8-43.613,98.12H1779.542l-75.016-750.134a145.59,145.59,0,0,1,28.456-102.078l28.435-37.9a145.316,145.316,0,0,1,92.61-56.343l28.461,28.461a43.109,43.109,0,0,0,44.123,10.415L2039,1312.826l57.4,28.7,79.8,159.6a43,43,0,0,0,15.273,16.912c-.4.844-.755,1.708-1.174,2.544l-4.963,9.931a145.129,145.129,0,0,1-130.518,80.668h-28.982l-31.193-62.391-77.121,38.555,43.107,86.226a567.852,567.852,0,0,1,11.047,486.184ZM2065,1697.406h451.559v129.339h-417.3A655.276,655.276,0,0,0,2065,1697.406Zm451.559,819.145H2344.1V1912.97h172.452Z" transform="translate(-15.998 -15.999)"/>
  <ellipse id="Ellipse_2" data-name="Ellipse 2" cx="43" cy="43.5" rx="43" ry="43.5" transform="translate(387.783 1250)"/>
</svg>
