<svg xmlns="http://www.w3.org/2000/svg" width="52.656" height="58.061" viewBox="0 0 52.656 58.061">
  <g id="Layer_35" data-name="Layer 35" transform="translate(-5.684 -2.939)">
    <path id="Path_1" data-name="Path 1" d="M56.6,42.72a7.65,7.65,0,0,1-.85-3.54c-.17-1.91-.36-4.07-2.25-5.7L40.84,18.59a13.11,13.11,0,1,0-5.4,8.24,5.18,5.18,0,0,1,.82,1.23.71.71,0,0,0,.12.18c.36.57,1.95,5.34,1.26,8.45a3.3,3.3,0,0,1-.88,1.74,10,10,0,0,0-9.31,2.32c-6.19-3.15-14.38-2-19.2,2.86A8.81,8.81,0,0,0,8.21,56,14.68,14.68,0,0,0,24.7,59.88,25.36,25.36,0,0,0,32.14,61c8.51,0,17.4-4.12,24.87-11.75a3.63,3.63,0,0,0,1.33-2.77,5.23,5.23,0,0,0-1.74-3.76ZM16.93,16.08A11.08,11.08,0,1,1,28,27.16,11.08,11.08,0,0,1,16.93,16.08ZM55.64,47.79c-8.57,8.76-19,12.64-28.29,10.7a16.06,16.06,0,0,0,1.71-1.3,1,1,0,0,0-1.33-1.5,12.82,12.82,0,0,1-3.4,2.19h-.08A12.72,12.72,0,0,1,9.66,54.67a6.83,6.83,0,0,1,0-9.65c5-5.05,13-5,17.85-1.94l2.57,2.14a1,1,0,0,0,1.38-1.44,13.23,13.23,0,0,0-2.2-2,8,8,0,0,1,7.34-1.37l2.27,1.11a1,1,0,0,0,1.01-1.72,10.15,10.15,0,0,0-1.13-.67,6.4,6.4,0,0,0,1-2.64A18.25,18.25,0,0,0,38,27.14a7.64,7.64,0,0,0-1-1.59,13.17,13.17,0,0,0,3.17-4.67L52,34.84l.12.12c1.32,1.1,1.45,2.63,1.61,4.4A9,9,0,0,0,55,43.94a.65.65,0,0,0,.15.18,3.32,3.32,0,0,1,1.18,2.33,1.73,1.73,0,0,1-.69,1.34Z"/>
    <circle id="Ellipse_1" data-name="Ellipse 1" cx="4.67" cy="4.67" r="4.67" transform="translate(23.34 11.41)"/>
    <path id="Path_2" data-name="Path 2" d="M42.93,16.08a1,1,0,1,0,2,0A16.93,16.93,0,0,0,39,3.24a1,1,0,1,0-1.31,1.51,14.92,14.92,0,0,1,5.24,11.33Z"/>
    <path id="Path_3" data-name="Path 3" d="M20.4,31.19a.91.91,0,0,0,.45.11,1,1,0,0,0,.45-1.89,14.87,14.87,0,0,1-8.21-13.33,1,1,0,1,0-2,0A16.83,16.83,0,0,0,20.4,31.19Z"/>
    <path id="Path_4" data-name="Path 4" d="M26,58.77l6.33,1.52,8.21-1.71,9.82-4.72L57.63,48V45.24l-2.31-2.38-1.56-8-3.2-3L40.17,19.13l-2.43,4.18L36.2,25.53l2.49,5.77-1,6-.81,2.37L33,39.45l-4.65,1.18-.64,1-4.6-1.72H18.49l-6.63,2L7,45.14s-.82,4-.74,4.24.64,3.8.64,3.8l2.87,2.07,3.34,3.34,4.26,1.31,4.1.21,2.75-.93Z"/>
  </g>
</svg>
