<svg xmlns="http://www.w3.org/2000/svg" width="654.566" height="508.429" viewBox="0 0 654.566 508.429">
  <g id="noun-nutrition-16042" transform="translate(0 -11.972)">
    <path id="Path_1058" data-name="Path 1058" d="M247.588,135.772c56.976-21.744,74.8-69.343,84.089-115.053l1.518-7.454-7.572-.7c-4.105-.384-8.223-.58-12.263-.58-32.932,0-62.977,12.915-84.591,36.379-20.786,22.545-31.928,52.988-31.114,84.4C100.021,139.8,22.715,221.483,22.715,320.9c0,104,84.623,188.625,188.631,188.625S399.958,424.9,399.958,320.9C399.958,229.276,334.309,152.72,247.588,135.772ZM238.8,57.612c19.014-20.623,45.488-31.98,74.556-31.98,1.095,0,2.183.013,3.291.046-11.025,48.733-33.036,93.772-105.37,105.578C210.851,103.785,220.677,77.278,238.8,57.612ZM211.346,495.864c-96.482,0-174.974-78.492-174.974-174.974,0-92.182,71.656-167.936,162.2-174.511l.033.378,5.337-.678c2.457-.1,4.92-.169,7.409-.169,96.476,0,174.961,78.492,174.961,174.974S307.822,495.864,211.346,495.864Z" transform="translate(125.296 0.05)"/>
    <path id="Path_1059" data-name="Path 1059" d="M176.914,245.741s16-148.108,18.284-197.695c.925-19.874-16.179-36.072-36.073-36.072-15.071,0-27,9.767-33.355,22.487-7.22,14.42-36.776,64.645-41.8,118.9-4.144,44.7,11.266,78.348,17.958,90.546L83.488,464.535a55.855,55.855,0,0,0,111.71,0Zm-37.584,260.9a42.174,42.174,0,0,1-42.1-41.963L115.9,241.558s-23.458-42.373-18.258-86.93c6.34-54.3,41.618-116.564,41.618-116.564a22.246,22.246,0,0,1,42.165,9.82L163.1,245.618l18.336,219.054A42.16,42.16,0,0,1,139.33,506.641Z" transform="translate(459.333 0.011)"/>
    <path id="Path_1060" data-name="Path 1060" d="M111.449,239.4a73.663,73.663,0,0,0,36.92-63.948L135.291,32.237a18.825,18.825,0,0,0-18.8-18.812,18.624,18.624,0,0,0-12.335,4.724,21.719,21.719,0,0,0-30.208-.13,21.682,21.682,0,0,0-29.934-.1A18.62,18.62,0,0,0,31.98,13.432,18.832,18.832,0,0,0,13.169,32.243L0,175.452A73.663,73.663,0,0,0,36.92,239.4L18.329,461.894a55.855,55.855,0,0,0,111.71,0ZM74.184,503.994a42.155,42.155,0,0,1-42.1-41.95l19.17-230.992-4.086-1.531a60.153,60.153,0,0,1-33.381-53.464L27.009,31.839a5.058,5.058,0,0,1,4.978-4.672c5.193-.091,5.206,5.063,5.206,5.063-.039.547.039,143.215.039,143.215H50.981V32.843a8,8,0,0,1,15.932.209l.4,142.413,13.749-.039-.235-141.56h.007v-.02a8.152,8.152,0,0,1,16.3.02l.248,141.579H111.13l.293-143.215a5.068,5.068,0,0,1,5.063-5.063,5.008,5.008,0,0,1,4.965,4.678l13.117,144.212a60.129,60.129,0,0,1-33.381,53.464L97,231.808l19.274,230.236A42.135,42.135,0,0,1,74.184,503.994Z" transform="translate(0 0)"/>
  </g>
</svg>
