<svg xmlns="http://www.w3.org/2000/svg" width="68.974" height="88.282" viewBox="0 0 68.974 88.282">
  <g id="Group_1" data-name="Group 1" transform="translate(99.244 -176)">
    <path id="FontAwsome_dumbbell_" data-name="FontAwsome (dumbbell)" d="M11.208,38.9H6.035a2.58,2.58,0,0,0-2.587,2.587V52.692H.862A.865.865,0,0,0,0,53.554v5.173a.865.865,0,0,0,.862.862H3.449V70.8a2.58,2.58,0,0,0,2.587,2.587h5.173A2.58,2.58,0,0,0,13.795,70.8V41.484A2.58,2.58,0,0,0,11.208,38.9Zm56.9,13.795H65.525V41.484A2.58,2.58,0,0,0,62.939,38.9H57.765a2.58,2.58,0,0,0-2.587,2.587V70.8a2.58,2.58,0,0,0,2.587,2.587h5.173A2.58,2.58,0,0,0,65.525,70.8V59.59h2.587a.865.865,0,0,0,.862-.862V53.554A.865.865,0,0,0,68.112,52.692ZM49.144,32H43.971a2.58,2.58,0,0,0-2.587,2.587V52.692H27.589V34.587A2.58,2.58,0,0,0,25,32H19.83a2.58,2.58,0,0,0-2.587,2.587V77.7a2.58,2.58,0,0,0,2.587,2.587H25A2.58,2.58,0,0,0,27.589,77.7V59.59H41.384V77.7a2.58,2.58,0,0,0,2.587,2.587h5.173A2.58,2.58,0,0,0,51.73,77.7V34.587A2.58,2.58,0,0,0,49.144,32Z" transform="translate(-99.244 184)"/>
    <path id="Icon_awesome-crown" data-name="Icon awesome-crown" d="M37.125,31.5H7.875A1.128,1.128,0,0,0,6.75,32.625v2.25A1.128,1.128,0,0,0,7.875,36h29.25a1.128,1.128,0,0,0,1.125-1.125v-2.25A1.128,1.128,0,0,0,37.125,31.5ZM41.625,9a3.376,3.376,0,0,0-3.375,3.375,3.307,3.307,0,0,0,.309,1.392l-5.091,3.052A2.247,2.247,0,0,1,30.361,16L24.63,5.977a3.375,3.375,0,1,0-4.261,0L14.639,16a2.249,2.249,0,0,1-3.108.816L6.448,13.767A3.374,3.374,0,1,0,3.375,15.75a3.446,3.446,0,0,0,.541-.056L9,29.25H36l5.084-13.556a3.446,3.446,0,0,0,.541.056,3.375,3.375,0,0,0,0-6.75Z" transform="translate(-88 176)"/>
  </g>
</svg>
